<?xml version="1.0" encoding="iso-8859-1"?>
<!-- Generator: Adobe Illustrator 19.0.0, SVG Export Plug-In . SVG Version: 6.00 Build 0)  -->
<svg version="1.1" id="Layer_1" xmlns="http://www.w3.org/2000/svg" xmlns:xlink="http://www.w3.org/1999/xlink" x="0px" y="0px"
	 viewBox="0 0 496.2 496.2" style="enable-background:new 0 0 496.2 496.2;" xml:space="preserve">
<path style="fill:#EA4949;" d="M496.2,248.1C496.2,111.1,385.1,0,248.1,0S0,111.1,0,248.1s111.1,248.1,248.1,248.1
	S496.2,385.1,496.2,248.1z"/>
<path style="fill:#3A3A38;" d="M359.6,314.2c0,0-25-185.4-25.5-185.3l-155.7,9.7c-0.9,0.1,18,166.4,18,166.4
	c-11.7-6.1-28.3-6.3-43.9,0.8c-23.5,10.7-36,33.8-27.9,51.6c8.1,17.8,33.7,23.6,57.2,12.9c19.9-9.1,32-27,30.2-43.1l0,0l-17.4-153.1
	l131.2-8.2l18,126.3c-11.7-6.1-28.3-6.3-43.9,0.8c-23.5,10.7-36,33.8-27.9,51.6c8.1,17.8,33.7,23.6,57.2,12.9
	C349.3,348.3,361.3,330.3,359.6,314.2L359.6,314.2z"/>
<g>
</g>
<g>
</g>
<g>
</g>
<g>
</g>
<g>
</g>
<g>
</g>
<g>
</g>
<g>
</g>
<g>
</g>
<g>
</g>
<g>
</g>
<g>
</g>
<g>
</g>
<g>
</g>
<g>
</g>
</svg>
